<?xml version="1.0" encoding="UTF-8" standalone="no"?>
<!-- Created with Inkscape (http://www.inkscape.org/) -->

<svg
   width="600"
   height="160"
   viewBox="0 0 158.75 42.333335"
   version="1.1"
   id="svg5"
   inkscape:version="1.1.2 (0a00cf5339, 2022-02-04, custom)"
   sodipodi:docname="lightway-logo-text-dark.svg"
   xmlns:inkscape="http://www.inkscape.org/namespaces/inkscape"
   xmlns:sodipodi="http://sodipodi.sourceforge.net/DTD/sodipodi-0.dtd"
   xmlns="http://www.w3.org/2000/svg"
   xmlns:svg="http://www.w3.org/2000/svg">
  <sodipodi:namedview
     id="namedview7"
     pagecolor="#ffffff"
     bordercolor="#666666"
     borderopacity="1.0"
     inkscape:pageshadow="2"
     inkscape:pageopacity="0.0"
     inkscape:pagecheckerboard="true"
     inkscape:document-units="px"
     showgrid="false"
     units="px"
     width="600px"
     inkscape:zoom="1"
     inkscape:cx="299.5"
     inkscape:cy="80"
     inkscape:window-width="1920"
     inkscape:window-height="1011"
     inkscape:window-x="0"
     inkscape:window-y="0"
     inkscape:window-maximized="1"
     inkscape:current-layer="g4413" />
  <defs
     id="defs2" />
  <g
     id="g4413">
    <rect
       style="fill:none;fill-rule:evenodd;stroke-width:0.264583"
       id="rect846"
       width="158.75"
       height="42.333336"
       x="6.9388939e-18"
       y="0" />
    <path
       id="path8293"
       style="font-size:27.3896px;line-height:1.25;font-family:Cantarell;-inkscape-font-specification:Cantarell;fill:#ffffff;stroke-width:2.588"
       d="m 178.60938,35 v 65.32031 c 0,7.14286 4.4509,11.80274 11.2832,11.80274 2.69151,0 5.90031,-0.62106 7.86719,-1.65625 l -1.86329,-5.79883 c -1.24223,0.5176 -2.38081,0.82812 -3.62304,0.82812 -3.51967,0 -5.38282,-2.3807 -5.38282,-6.210934 V 35 Z m 113.25,0 v 76.50195 h 8.28124 V 72.841797 c 3.80158,-3.370099 8.41868,-5.025391 13.25196,-5.025391 8.07454,0 12.52539,4.554366 12.52539,12.628906 v 31.056638 h 8.28125 V 78.789062 c 0,-11.076615 -7.34916,-18.21875 -18.5293,-18.21875 -5.49096,0 -10.9229,1.783333 -15.5293,5.304688 V 35 Z m -80.22657,3.105469 c -3.72671,0 -5.90234,2.173678 -5.90234,5.90039 0,3.726709 2.17563,5.900391 5.90234,5.900391 3.72671,0 5.90039,-2.173682 5.90039,-5.900391 0,-3.726712 -2.17368,-5.90039 -5.90039,-5.90039 z m 140.88867,8.902343 v 14.597657 h -6.72851 v 6.935547 h 6.72851 v 29.605468 c 0,8.281576 6.0055,13.873046 15.11524,13.873046 3.41615,0 6.83193,-0.82808 9.21289,-1.86328 l -1.86328,-6.00586 c -1.5528,0.72464 -3.83001,1.13867 -5.58985,1.13867 -5.17598,0 -8.59179,-3.3123 -8.59179,-8.281248 V 68.541016 h 13.66406 V 61.605469 H 360.80469 V 47.007812 Z m -99.58593,13.5625 c -13.87165,0 -23.29102,10.454447 -23.29102,26.292969 0,15.424439 8.90181,25.673829 22.25586,25.673829 5.82258,0 10.74582,-1.99981 14.49414,-5.50781 v 4.26562 c 0,11.07662 -4.97031,16.5625 -14.9082,16.5625 -4.45135,0 -9.8338,-1.13859 -14.49219,-3.10547 l -1.75976,6.31446 C 240.41036,133.6544 245.68925,135 250.86523,135 c 14.38925,0 23.81055,-9.9369 23.81055,-24.94727 V 61.605469 h -5.79687 l -1.5625,4.230469 c -3.65261,-3.40421 -8.5381,-5.265626 -14.38086,-5.265626 z m 232.60937,0 c -6.52172,0 -13.56033,1.759644 -18.94336,4.761719 l 2.07032,6.107422 c 5.17598,-2.277434 10.35137,-3.416016 15.21679,-3.416015 8.90268,0 13.45703,3.726272 13.45703,11.076171 v 3.320313 c -22.40035,0.166091 -32.08984,4.846709 -32.08984,15.519531 0,8.902697 6.62459,14.597657 16.87305,14.597657 6.27414,0 11.74258,-2.0706 15.72461,-5.65039 l 1.97656,4.61523 h 5.79687 V 79.099609 c 0,-11.90477 -7.03854,-18.529296 -20.08203,-18.529297 z m -278.1582,1.035157 v 49.896481 h 8.2832 V 61.605469 Z m 173.39648,0 17.1836,49.896481 h 8.17773 l 13.61133,-40.191403 14.33984,40.191403 h 8.38477 L 458.94141,61.605469 H 450.6582 L 438.34766,102.06641 424.7793,61.8125 h -9.10938 L 402.3418,102.71094 390.20312,61.605469 Z m 133.85157,0 19.66796,49.896481 -9.00585,22.46289 h 8.79882 l 8.28125,-22.46289 19.46289,-49.896481 h -8.2832 L 538.50977,103.46875 523.84766,61.605469 Z m -261.28516,6.210937 c 5.55356,0 10.06605,2.241631 13.04492,6.16211 v 25.648437 c -2.84294,3.573857 -7.01374,5.662107 -12.11328,5.662107 -9.9379,0 -16.35547,-7.763214 -16.35547,-19.253904 0,-10.973094 5.79649,-18.21875 15.42383,-18.21875 z M 497.3457,88.111328 v 12.203122 c -3.12909,3.13529 -7.66278,4.97461 -12.83593,4.97461 -6.62525,0 -10.97266,-3.3123 -10.97266,-8.281248 0,-6.164217 7.00855,-8.775444 23.80859,-8.896484 z"
       transform="scale(0.26458334)" />
    <path
       d="M 7.9375,8.9958337 15.874998,4.7625003 V 36.512502 H 7.9375 Z"
       style="fill:#a0e0e2;fill-opacity:1;fill-rule:evenodd;stroke-width:0.0700043"
       id="path6074" />
    <path
       d="m 19.84375,17.462503 h 7.9375 l -11.906246,19.05 H 7.937501 Z"
       style="fill:#73d0d5;fill-opacity:1;stroke-width:0.0720339"
       id="path5874" />
    <path
       d="m 19.84375,17.462503 h 7.9375 v 19.05 h -7.9375 z"
       style="fill:#a0e0e2;fill-opacity:1;fill-rule:evenodd;stroke-width:0.054225"
       id="path5674" />
    <path
       d="m 31.749995,17.462505 h 7.9375 L 27.78125,36.512506 h -7.9375 z"
       style="fill:#73d0d5;fill-opacity:1;stroke-width:0.0720339"
       id="path5454" />
  </g>
</svg>
